<?xml version="1.0" standalone="no"?>
<!DOCTYPE svg PUBLIC "-//W3C//DTD SVG 20010904//EN"
 "http://www.w3.org/TR/2001/REC-SVG-20010904/DTD/svg10.dtd">
<svg version="1.0" xmlns="http://www.w3.org/2000/svg"
 width="124.000000pt" height="83.000000pt" viewBox="0 0 124.000000 83.000000"
 preserveAspectRatio="xMidYMid meet">

<g transform="translate(0.000000,83.000000) scale(0.100000,-0.100000)"
fill="#000000" stroke="none">
<path d="M206 485 c-3 -9 3 -20 14 -27 25 -16 25 -25 3 -31 -14 -4 -13 -5 3
-6 29 -1 39 26 14 39 -25 13 -26 27 -2 33 13 4 12 5 -4 6 -12 0 -24 -6 -28
-14z"/>
<path d="M268 493 c6 -2 12 -20 12 -39 0 -19 5 -34 10 -34 6 0 10 15 10 34 0
19 6 37 13 39 6 3 -4 5 -23 5 -19 0 -29 -2 -22 -5z"/>
<path d="M332 467 c-16 -44 -15 -52 3 -37 12 10 18 10 30 0 9 -7 17 -11 19 -9
6 6 -25 79 -33 79 -4 0 -12 -15 -19 -33z m28 -7 c0 -5 -4 -10 -10 -10 -5 0
-10 5 -10 10 0 6 5 10 10 10 6 0 10 -4 10 -10z"/>
<path d="M401 458 c1 -24 3 -35 6 -25 2 9 7 17 10 17 3 0 12 -8 20 -17 13 -17
14 -16 8 4 -3 12 -1 24 5 28 16 10 -7 35 -31 35 -16 0 -19 -7 -18 -42z m39 11
c0 -5 -7 -9 -15 -9 -15 0 -20 12 -9 23 8 8 24 -1 24 -14z"/>
<path d="M500 486 c-6 -8 -10 -25 -8 -38 2 -18 10 -23 33 -25 28 -2 28 -1 5 5
-18 6 -25 15 -25 32 0 17 7 26 25 31 22 6 23 7 4 8 -12 1 -27 -6 -34 -13z"/>
<path d="M560 460 c0 -35 3 -40 23 -39 12 0 16 3 10 6 -7 2 -13 20 -13 39 0
19 -4 34 -10 34 -5 0 -10 -18 -10 -40z"/>
<path d="M627 460 c-15 -40 -11 -50 11 -28 9 9 15 9 24 0 22 -22 26 -12 11 28
-9 22 -19 40 -23 40 -4 0 -14 -18 -23 -40z m33 0 c0 -5 -4 -10 -10 -10 -5 0
-10 5 -10 10 0 6 5 10 10 10 6 0 10 -4 10 -10z"/>
<path d="M703 484 c-4 -10 0 -20 10 -26 22 -12 22 -25 0 -31 -14 -4 -13 -5 4
-6 32 -2 40 19 14 40 -20 17 -20 18 -4 28 17 10 17 10 0 11 -10 0 -20 -7 -24
-16z"/>
<path d="M763 484 c-4 -10 0 -20 10 -26 22 -12 22 -25 0 -32 -11 -3 -8 -4 7
-3 32 3 39 33 9 42 -22 7 -22 8 -4 21 17 13 17 14 2 14 -10 0 -20 -7 -24 -16z"/>
<path d="M827 493 c-4 -3 -7 -21 -7 -40 0 -30 3 -33 28 -32 16 1 20 3 10 6
-10 2 -18 9 -18 14 0 5 8 9 18 9 16 1 16 1 0 14 -10 7 -18 16 -18 19 0 3 8 8
18 10 14 4 13 5 -4 6 -11 0 -24 -2 -27 -6z"/>
<path d="M893 484 c-4 -10 0 -20 10 -26 22 -12 22 -25 0 -32 -11 -3 -8 -4 7
-3 32 3 37 31 8 44 l-23 11 25 10 c25 11 25 11 2 11 -12 1 -25 -6 -29 -15z"/>
<path d="M953 473 c15 -4 16 -7 5 -20 -12 -14 -11 -15 9 -5 36 20 37 32 1 31
-18 -1 -25 -3 -15 -6z"/>
<path d="M802 371 c-17 -55 -16 -56 30 -22 l41 30 40 -29 c22 -16 42 -29 43
-27 7 7 -19 86 -27 82 -4 -3 -4 -17 1 -31 l10 -25 -29 20 c-36 26 -36 26 -72
0 l-29 -20 6 30 c9 44 -1 38 -14 -8z"/>
</g>
</svg>
